<svg fill="none" height="24" viewBox="0 0 24 24" width="24" xmlns="http://www.w3.org/2000/svg">
    <path
        d="m22.5 22.5h-1.5v.75c0 .2031-.0742.3789-.2227.5273-.1484.1485-.3242.2227-.5273.2227h-1.5c-.2031 0-.3789-.0742-.5273-.2227-.1485-.1484-.2227-.3242-.2227-.5273v-.75h-10.5v.75c0 .2031-.07422.3789-.22266.5273-.14843.1485-.32422.2227-.52734.2227h-1.5c-.20312 0-.37891-.0742-.52734-.2227-.14844-.1484-.22266-.3242-.22266-.5273v-.75h-1.5c-.42188 0-.77734-.1484-1.06641-.4453-.28906-.2969-.43359-.6485-.43359-1.0547v-1.5h-.75c-.203125 0-.378906-.0742-.527344-.2227-.1484372-.1484-.222656-.3242-.222656-.5273v-4.5c0-.2031.0742188-.3789.222656-.5273.148438-.1485.324219-.2227.527344-.2227h.75v-3h-.75c-.203125 0-.378906-.0742-.527344-.2227-.1484372-.1484-.222656-.32418-.222656-.5273v-4.5c0-.20312.0742188-.37891.222656-.52734.148438-.14844.324219-.22266.527344-.22266h.75v-3c0-.40625.14453-.757812.43359-1.054688.28907-.296874.64453-.445312 1.06641-.445312h19.5c.4219 0 .7773.148438 1.0664.445312.2891.296876.4336.648438.4336 1.054688v19.5c0 .4219-.1484.7773-.4453 1.0664s-.6485.4336-1.0547.4336zm-6-11.25c0-.4688-.0938-.9375-.2812-1.40625l2.8359-2.8125c.2812-.29687.4219-.64844.4219-1.05469s-.1446-.7539-.4336-1.04297c-.2891-.28906-.6368-.43359-1.043-.43359s-.7578.14062-1.0547.42188l-2.8359 2.83593c-.4532-.17187-.9063-.25781-1.3594-.25781-.4688 0-.9297.08594-1.3828.25781l-2.83595-2.83593c-.29687-.28126-.64844-.42188-1.05469-.42188s-.7539.14453-1.04297.43359c-.28906.28907-.43359.63672-.43359 1.04297s.14062.75782.42188 1.05469l2.83593 2.83594c-.17187.45311-.25781.91401-.25781 1.38281 0 .4531.08594.9062.25781 1.3594l-2.83593 2.8359c-.28126.2969-.42188.6485-.42188 1.0547s.14453.7539.43359 1.043c.28907.289.63672.4336 1.04297.4336s.75782-.1407 1.05469-.4219l2.81255-2.8359c.4687.1874.9374.2812 1.4062.2812s.9297-.0938 1.3828-.2812l2.8125 2.8359c.2813.2812.6289.4219 1.043.4219.414 0 .7656-.1446 1.0547-.4336.289-.2891.4336-.6368.4336-1.043s-.1407-.7578-.4219-1.0547l-2.8359-2.8125c.1874-.4531.2812-.914.2812-1.3828zm6-1.5c0-.20312-.0742-.37891-.2227-.52734-.1484-.14844-.3242-.22266-.5273-.22266s-.3789.07422-.5273.22266c-.1485.14843-.2227.32422-.2227.52734v3c0 .2031.0742.3789.2227.5273.1484.1485.3242.2227.5273.2227s.3789-.0742.5273-.2227c.1485-.1484.2227-.3242.2227-.5273zm-9.75 3.75c-.625 0-1.1562-.2188-1.5938-.6562-.4374-.4376-.6562-.9688-.6562-1.5938s.2188-1.1562.6562-1.59375c.4376-.4375.9688-.65625 1.5938-.65625s1.1562.21875 1.5938.65625c.4374.43755.6562.96875.6562 1.59375s-.2188 1.1562-.6562 1.5938c-.4376.4374-.9688.6562-1.5938.6562z"
        fill="#4fd166" />
</svg>