<svg enable-background="new 0 0 512 512" viewBox="0 0 512 512" xmlns="http://www.w3.org/2000/svg">
    <g fill="#4fd166">
        <path
            d="m256 11c-135.37 0-245 109.63-245 245s109.63 245 245 245 245-109.63 245-245-109.63-245-245-245zm0 470.93c-124.88 0-225.93-101.05-225.93-225.93s101.05-225.93 225.93-225.93 225.93 101.05 225.93 225.93-101.05 225.93-225.93 225.93z" />
        <path
            d="m301.02 225.68h20.8v11.4c0 5.53-4.5 11.04-11.74 14.36l-55.98 25.69v-106.6h37.06l-44.31-76.57-44.32 76.57h37.27v148.41l-33.92-21.68c-4.78-3.05-7.63-8.26-7.63-13.93v-11.8c15.75-3.45 27.57-17.5 27.57-34.27 0-19.34-15.73-35.07-35.07-35.07s-35.07 15.73-35.07 35.07c0 17.02 12.18 31.24 28.28 34.42v11.65c0 10.58 5.32 20.29 14.23 25.97l41.62 26.6v5.67c-15.75 3.45-27.58 17.49-27.58 34.25 0 19.35 15.74 35.08 35.08 35.08s35.08-15.73 35.08-35.08c0-17.01-12.18-31.23-28.28-34.4v-48.56l61.94-28.43c12.58-5.77 20.08-16 20.08-27.36v-11.4h20.21v-55.3h-55.31v55.31zm-54.17-103.17 19.51 33.72h-39.03zm-76.88 114.75c0-11.46 9.32-20.77 20.77-20.77 11.46 0 20.77 9.32 20.77 20.77 0 11.46-9.32 20.78-20.77 20.78s-20.77-9.32-20.77-20.78zm98.12 138.57c0 11.46-9.32 20.78-20.78 20.78s-20.78-9.32-20.78-20.78c0-11.45 9.32-20.77 20.78-20.77 11.45 0 20.78 9.32 20.78 20.77zm47.23-191.16h26.71v26.7h-26.71z" />
    </g>
</svg>