<svg enable-background="new 0 0 512 512" viewBox="0 0 512 512" xmlns="http://www.w3.org/2000/svg">
    <g fill="#4fd166">
        <path
            d="m256 13.5c-134.39 0-243.23 108.51-243.23 242.5s108.84 242.5 243.23 242.5 243.23-108.51 243.23-242.5-108.84-242.5-243.23-242.5zm0 466.13c-123.98 0-224.3-100.02-224.3-223.63s100.32-223.63 224.3-223.63 224.3 100.02 224.3 223.63-100.32 223.63-224.3 223.63z" />
        <path
            d="m342.3 301.91c-3.91 0-7.09 3.17-7.09 7.09v39.79h-158.43v-39.79c0-3.91-3.17-7.09-7.09-7.09s-7.09 3.17-7.09 7.09v46.88c0 3.91 3.17 7.09 7.09 7.09h172.61c3.91 0 7.09-3.17 7.09-7.09v-46.88c0-3.92-3.17-7.09-7.09-7.09z" />
        <path
            d="m203.02 270.92 50.79 39.72c1.28 1.01 2.82 1.5 4.36 1.5s3.08-.5 4.36-1.5l50.79-39.72c3.08-2.41 3.63-6.86 1.22-9.94-2.42-3.08-6.86-3.65-9.95-1.22l-39.34 30.76v-134.39c0-3.91-3.17-7.09-7.09-7.09s-7.09 3.17-7.09 7.09v134.39l-39.34-30.76c-3.08-2.41-7.53-1.87-9.95 1.22-2.39 3.08-1.84 7.53 1.24 9.94z" />
    </g>
</svg>