<svg enable-background="new 0 0 64 64" viewBox="0 0 64 64" xmlns="http://www.w3.org/2000/svg">
    <g fill="#4fd166">
        <path
            d="m41.1 32.7-4.5 2.6-4.6 2.7-4.6-2.7-4.5-2.6v-3.8l4.5 2.7 4.6 2.6 4.6-2.6 4.5-2.7z" />
        <path
            d="m41.1 40.1-4.5 2.7-4.6 2.6-4.6-2.6-4.5-2.7v-3.7l4.5 2.6 4.6 2.7 4.6-2.7 4.5-2.6z" />
        <path
            d="m41.1 49.5-4.5 2.7-4.6 2.6-4.6-2.6-4.5-2.7v-5.8l4.5 2.6 4.6 2.7 4.6-2.7 4.5-2.6z" />
        <path d="m36.6 11.8-4.6-2.6-4.6 2.6-4.5 2.7v10.8l4.5 2.7 4.6 2.6 4.6-2.6 4.5-2.7v-10.8z" />
    </g>
</svg>