<svg fill="none" height="59" viewBox="0 0 50 59" width="50" xmlns="http://www.w3.org/2000/svg">
    <path
        d="m38.69 15.9743v-3.3338c0-.3056-.2523-.5556-.5607-.5556h-26.9148c-.3084 0-.5607.25-.5607.5556v3.3338c0 .3056.2523.5556.5607.5556h26.9148c.3084 0 .5607-.25.5607-.5556zm-27.4755 6.1119c-.3084 0-.5607.25-.5607.5556v3.3338c0 .3056.2523.5556.5607.5556h12.8966c.3084 0 .5608-.25.5608-.5556v-3.3338c0-.3056-.2524-.5556-.5608-.5556zm37.8636 31.8097h-44.03158v-48.89525h39.25068v49.92235c0 .3056.2523.5556.5607.5556h3.9251c.3084 0 .5607-.25.5607-.5556v-52.70049c0-1.229325-1.0023-2.22251-2.2429-2.22251h-44.8579c-1.24061 0-2.2429.993185-2.2429 2.22251v54.45149c0 1.2294 1.00229 2.2226 2.2429 2.2226h46.5401c.3084 0 .5607-.3216.5607-.6272v-3.7978c0-.3056.0428-.5757-.2656-.5757z"
        fill="#5653d3" />
</svg>