<svg width="20" height="22" viewBox="0 0 20 22" fill="none" xmlns="http://www.w3.org/2000/svg">
    <path
        d="M10 0.533203C4.47768 0.533203 0 5.24969 0 11.0665C0 16.8834 4.47768 21.5999 10 21.5999C15.5223 21.5999 20 16.8834 20 11.0665C20 5.24969 15.5223 0.533203 10 0.533203ZM14.2857 11.6308C14.2857 11.7343 14.2054 11.8189 14.1071 11.8189H10.7143V15.3927C10.7143 15.4962 10.6339 15.5808 10.5357 15.5808H9.46429C9.36607 15.5808 9.28571 15.4962 9.28571 15.3927V11.8189H5.89286C5.79464 11.8189 5.71429 11.7343 5.71429 11.6308V10.5023C5.71429 10.3988 5.79464 10.3142 5.89286 10.3142H9.28571V6.74035C9.28571 6.63689 9.36607 6.55225 9.46429 6.55225H10.5357C10.6339 6.55225 10.7143 6.63689 10.7143 6.74035V10.3142H14.1071C14.2054 10.3142 14.2857 10.3988 14.2857 10.5023V11.6308Z"
        fill="#4fd166" />
    <circle cx="12.5" cy="11.5" r="7.5" fill="#4fd166" />
    <path
        d="M13.5714 13.1429C13.3192 13.1441 13.0721 13.2145 12.8571 13.3464L11.7536 12.2393C12.0104 11.8771 12.1483 11.444 12.1483 11C12.1483 10.556 12.0104 10.1229 11.7536 9.76071L12.8571 8.65357C13.0721 8.7855 13.3192 8.85591 13.5714 8.85714C13.854 8.85714 14.1302 8.77336 14.3651 8.61639C14.6 8.45941 14.7831 8.2363 14.8913 7.97526C14.9994 7.71423 15.0277 7.42699 14.9725 7.14987C14.9174 6.87276 14.7814 6.61821 14.5816 6.41842C14.3818 6.21863 14.1272 6.08257 13.8501 6.02745C13.573 5.97233 13.2858 6.00062 13.0247 6.10874C12.7637 6.21687 12.5406 6.39997 12.3836 6.6349C12.2266 6.86983 12.1429 7.14603 12.1429 7.42857C12.1441 7.68081 12.2145 7.92787 12.3464 8.14286L11.2393 9.24643C10.8771 8.98964 10.444 8.85172 10 8.85172C9.55599 8.85172 9.12294 8.98964 8.76071 9.24643L7.65357 8.14286C7.7855 7.92787 7.85591 7.68081 7.85714 7.42857C7.85714 7.14603 7.77336 6.86983 7.61639 6.6349C7.45941 6.39997 7.2363 6.21687 6.97526 6.10874C6.71423 6.00062 6.42699 5.97233 6.14987 6.02745C5.87276 6.08257 5.61821 6.21863 5.41842 6.41842C5.21863 6.61821 5.08257 6.87276 5.02745 7.14987C4.97233 7.42699 5.00062 7.71423 5.10874 7.97526C5.21687 8.2363 5.39997 8.45941 5.6349 8.61639C5.86983 8.77336 6.14603 8.85714 6.42857 8.85714C6.68081 8.85591 6.92787 8.7855 7.14286 8.65357L8.24643 9.76071C7.98964 10.1229 7.85172 10.556 7.85172 11C7.85172 11.444 7.98964 11.8771 8.24643 12.2393L7.14286 13.3464C6.92787 13.2145 6.68081 13.1441 6.42857 13.1429C6.14603 13.1429 5.86983 13.2266 5.6349 13.3836C5.39997 13.5406 5.21687 13.7637 5.10874 14.0247C5.00062 14.2858 4.97233 14.573 5.02745 14.8501C5.08257 15.1272 5.21863 15.3818 5.41842 15.5816C5.61821 15.7814 5.87276 15.9174 6.14987 15.9725C6.42699 16.0277 6.71423 15.9994 6.97526 15.8913C7.2363 15.7831 7.45941 15.6 7.61639 15.3651C7.77336 15.1302 7.85714 14.854 7.85714 14.5714C7.85591 14.3192 7.7855 14.0721 7.65357 13.8571L8.76071 12.7536C9.12294 13.0104 9.55599 13.1483 10 13.1483C10.444 13.1483 10.8771 13.0104 11.2393 12.7536L12.3464 13.8571C12.2145 14.0721 12.1441 14.3192 12.1429 14.5714C12.1429 14.854 12.2266 15.1302 12.3836 15.3651C12.5406 15.6 12.7637 15.7831 13.0247 15.8913C13.2858 15.9994 13.573 16.0277 13.8501 15.9725C14.1272 15.9174 14.3818 15.7814 14.5816 15.5816C14.7814 15.3818 14.9174 15.1272 14.9725 14.8501C15.0277 14.573 14.9994 14.2858 14.8913 14.0247C14.7831 13.7637 14.6 13.5406 14.3651 13.3836C14.1302 13.2266 13.854 13.1429 13.5714 13.1429ZM10 12.4286C9.71746 12.4286 9.44126 12.3448 9.20633 12.1878C8.9714 12.0308 8.7883 11.8077 8.68017 11.5467C8.57205 11.2857 8.54376 10.9984 8.59888 10.7213C8.654 10.4442 8.79006 10.1896 8.98985 9.98985C9.18964 9.79006 9.44418 9.654 9.7213 9.59888C9.99842 9.54376 10.2857 9.57205 10.5467 9.68017C10.8077 9.7883 11.0308 9.9714 11.1878 10.2063C11.3448 10.4413 11.4286 10.7175 11.4286 11C11.4286 11.3789 11.2781 11.7422 11.0102 12.0102C10.7422 12.2781 10.3789 12.4286 10 12.4286Z"
        fill="white" />
</svg>
