<svg enable-background="new 0 0 64 64" viewBox="0 0 64 64" xmlns="http://www.w3.org/2000/svg">
    <g fill="#4fd166">
        <path
            d="m14.1 57.3c-.3 0-.6-.1-.8-.3-4.7-3.5-8.3-8.2-10.4-13.6-2.1-5.5-2.7-11.4-1.6-17.1.1-.7.8-1.2 1.6-1.1.7.1 1.2.8 1.1 1.6-2 10.6 2.3 21.6 11 28.1.6.4.7 1.3.3 1.9-.3.3-.8.5-1.2.5z" />
        <path
            d="m32 63.2c-2.3 0-4.7-.3-7-.8-.7-.2-1.2-.9-1-1.6s.9-1.2 1.6-1c10.4 2.4 21.6-1.4 28.4-9.6.5-.6 1.3-.7 1.9-.2s.7 1.3.2 1.9c-3.7 4.4-8.5 7.8-14 9.7-3.3 1.1-6.7 1.6-10.1 1.6z" />
        <path
            d="m59.2 45.6c-.2 0-.4 0-.6-.1-.7-.3-1-1.1-.7-1.8 5.4-12 1.9-26.1-8.5-34.2-.6-.5-.7-1.3-.2-1.9s1.3-.7 1.9-.2c5.4 4.2 9.4 10.2 11.1 16.9.9 3.3 1.2 6.8.9 10.2-.3 3.6-1.2 7-2.6 10.3-.2.5-.7.8-1.3.8z" />
        <path
            d="m7.3 16.6c-.3 0-.5-.1-.8-.2-.6-.4-.8-1.3-.4-1.9 3.4-5 8.2-9 13.8-11.3 5.6-2.3 11.7-3 17.7-1.9.7.1 1.2.8 1.1 1.6-.1.7-.8 1.2-1.6 1.1-11.1-2.1-22.4 2.6-28.7 12-.3.4-.7.6-1.1.6z" />
        <path
            d="m32 50.9c-10.2 0-18.5-8.3-18.5-18.5 0-10.1 8.3-18.4 18.5-18.4s18.5 8.3 18.5 18.5c0 10.1-8.3 18.4-18.5 18.4zm0-34.1c-8.6 0-15.7 7-15.7 15.7s7 15.7 15.7 15.7 15.7-7 15.7-15.7-7.1-15.7-15.7-15.7z" />
    </g>
</svg>