<svg fill="none" height="61" viewBox="0 0 53 61" width="53" xmlns="http://www.w3.org/2000/svg">
    <path
        d="m35.5726 41.4968c-.0517-.0721-.12-.1307-.1991-.1709-.0791-.0401-.1667-.0607-.2554-.06h-3.0909c-.4545 0-.7202.5177-.4545.8885l5.1607 7.1423c.2238.3078.6783.3078.9021 0l7.9858-11.0528c.2658-.3707 0-.8884-.4545-.8884h-3.0978c-.1819 0-.3497.0839-.4546.2309l-4.4404 6.1419zm3.0279-25.4074v-3.3577c0-.3078-.2517-.5597-.5594-.5597h-26.8525c-.3077 0-.5595.2519-.5595.5597v3.3577c0 .3078.2518.5597.5595.5597h26.8525c.3077 0 .5594-.2519.5594-.5597zm-27.4119 6.156c-.3077 0-.5595.2518-.5595.5596v3.3578c0 .3078.2518.5597.5595.5597h12.8668c.3077 0 .5594-.2519.5594-.5597v-3.3578c0-.3078-.2517-.5596-.5594-.5596zm12.8668 32.039h-19.02055v-49.2477h39.15995v20.7064c0 .3078.2517.5597.5594.5597h3.916c.3077 0 .5594-.2519.5594-.5597v-23.50457c0-1.23819-.9999-2.23853-2.2377-2.23853h-44.75419c-1.237733 0-2.23771 1.00034-2.23771 2.23853v54.84407c0 1.2382.999977 2.2385 2.23771 2.2385h21.81769c.3077 0 .5594-.2518.5594-.5596v-3.9175c0-.3078-.2517-.5596-.5594-.5596zm28.1532-22.4413-13.4263-4.6659c-.0629-.021-.1189-.028-.1818-.028s-.1259.007-.1818.028l-13.4263 4.6659c-.1097.0373-.205.1079-.2727.2019-.0677.0941-.1043.2069-.1049.3228v17.5655c0 .1748.0769.3357.2168.4407l13.4263 10.5071c.0979.0769.2237.1189.3426.1189s.2448-.042.3427-.1189l13.4262-10.5071c.1329-.105.2168-.2659.2168-.4407v-17.5655c0-.2379-.1538-.4477-.3776-.5247zm-3.958 16.2644-9.6501 7.548-9.6501-7.548v-13.0605l9.6501-3.3578 9.6501 3.3578z"
        fill="#2cb845" />
</svg>